<mxfile host="app.diagrams.net" modified="2022-09-30T19:17:54.355Z" agent="5.0 (Windows NT 10.0; Win64; x64) AppleWebKit/537.36 (KHTML, like Gecko) Chrome/104.0.0.0 Safari/537.36" etag="bDsjnA9bcdBcQ2w7eLjT" version="20.4.0" type="github">
  <diagram id="kwf1DfNNfV_sgtsVtwUe" name="Page-1">
    <mxGraphModel dx="1298" dy="674" grid="1" gridSize="10" guides="1" tooltips="1" connect="1" arrows="1" fold="1" page="1" pageScale="1" pageWidth="850" pageHeight="1100" math="0" shadow="0">
      <root>
        <mxCell id="0" />
        <mxCell id="1" parent="0" />
        <mxCell id="IV-PJzwdEKSMfLSHQAN--9" style="edgeStyle=orthogonalEdgeStyle;rounded=0;orthogonalLoop=1;jettySize=auto;html=1;exitX=1;exitY=0.5;exitDx=0;exitDy=0;" edge="1" parent="1" source="IV-PJzwdEKSMfLSHQAN--1" target="IV-PJzwdEKSMfLSHQAN--8">
          <mxGeometry relative="1" as="geometry" />
        </mxCell>
        <mxCell id="IV-PJzwdEKSMfLSHQAN--1" value="Nuclear" style="rounded=1;whiteSpace=wrap;html=1;" vertex="1" parent="1">
          <mxGeometry x="350" y="190" width="120" height="60" as="geometry" />
        </mxCell>
        <mxCell id="IV-PJzwdEKSMfLSHQAN--15" style="edgeStyle=orthogonalEdgeStyle;rounded=0;orthogonalLoop=1;jettySize=auto;html=1;entryX=0;entryY=0.5;entryDx=0;entryDy=0;" edge="1" parent="1" source="IV-PJzwdEKSMfLSHQAN--3" target="IV-PJzwdEKSMfLSHQAN--14">
          <mxGeometry relative="1" as="geometry">
            <Array as="points">
              <mxPoint x="190" y="350" />
            </Array>
          </mxGeometry>
        </mxCell>
        <mxCell id="IV-PJzwdEKSMfLSHQAN--3" value="DNA material" style="rounded=1;whiteSpace=wrap;html=1;" vertex="1" parent="1">
          <mxGeometry x="120" y="190" width="120" height="60" as="geometry" />
        </mxCell>
        <mxCell id="IV-PJzwdEKSMfLSHQAN--7" value="" style="group" vertex="1" connectable="0" parent="1">
          <mxGeometry x="255" y="195" width="75" height="30" as="geometry" />
        </mxCell>
        <mxCell id="IV-PJzwdEKSMfLSHQAN--4" style="edgeStyle=orthogonalEdgeStyle;rounded=0;orthogonalLoop=1;jettySize=auto;html=1;entryX=0;entryY=0.5;entryDx=0;entryDy=0;" edge="1" parent="IV-PJzwdEKSMfLSHQAN--7" source="IV-PJzwdEKSMfLSHQAN--3" target="IV-PJzwdEKSMfLSHQAN--1">
          <mxGeometry relative="1" as="geometry" />
        </mxCell>
        <mxCell id="IV-PJzwdEKSMfLSHQAN--6" value="Storage in" style="text;html=1;align=center;verticalAlign=middle;resizable=0;points=[];autosize=1;strokeColor=none;fillColor=none;" vertex="1" parent="IV-PJzwdEKSMfLSHQAN--7">
          <mxGeometry x="-5" width="80" height="30" as="geometry" />
        </mxCell>
        <mxCell id="IV-PJzwdEKSMfLSHQAN--12" style="edgeStyle=orthogonalEdgeStyle;rounded=0;orthogonalLoop=1;jettySize=auto;html=1;exitX=1;exitY=0.5;exitDx=0;exitDy=0;entryX=0;entryY=0.5;entryDx=0;entryDy=0;" edge="1" parent="1" source="IV-PJzwdEKSMfLSHQAN--8" target="IV-PJzwdEKSMfLSHQAN--11">
          <mxGeometry relative="1" as="geometry" />
        </mxCell>
        <mxCell id="IV-PJzwdEKSMfLSHQAN--8" value="Nuclear envenlope" style="rounded=1;whiteSpace=wrap;html=1;" vertex="1" parent="1">
          <mxGeometry x="570" y="190" width="120" height="60" as="geometry" />
        </mxCell>
        <mxCell id="IV-PJzwdEKSMfLSHQAN--10" value="Covered by" style="text;html=1;align=center;verticalAlign=middle;resizable=0;points=[];autosize=1;strokeColor=none;fillColor=none;" vertex="1" parent="1">
          <mxGeometry x="480" y="195" width="80" height="30" as="geometry" />
        </mxCell>
        <mxCell id="IV-PJzwdEKSMfLSHQAN--38" style="edgeStyle=orthogonalEdgeStyle;rounded=0;orthogonalLoop=1;jettySize=auto;html=1;entryX=0.5;entryY=0;entryDx=0;entryDy=0;" edge="1" parent="1" source="IV-PJzwdEKSMfLSHQAN--11" target="IV-PJzwdEKSMfLSHQAN--20">
          <mxGeometry relative="1" as="geometry" />
        </mxCell>
        <mxCell id="IV-PJzwdEKSMfLSHQAN--11" value="Nuclear pores on it" style="rounded=1;whiteSpace=wrap;html=1;" vertex="1" parent="1">
          <mxGeometry x="780" y="190" width="120" height="60" as="geometry" />
        </mxCell>
        <mxCell id="IV-PJzwdEKSMfLSHQAN--21" style="edgeStyle=orthogonalEdgeStyle;rounded=0;orthogonalLoop=1;jettySize=auto;html=1;entryX=0;entryY=0.5;entryDx=0;entryDy=0;" edge="1" parent="1" source="IV-PJzwdEKSMfLSHQAN--14" target="IV-PJzwdEKSMfLSHQAN--20">
          <mxGeometry relative="1" as="geometry" />
        </mxCell>
        <mxCell id="IV-PJzwdEKSMfLSHQAN--37" style="edgeStyle=orthogonalEdgeStyle;rounded=0;orthogonalLoop=1;jettySize=auto;html=1;" edge="1" parent="1" source="IV-PJzwdEKSMfLSHQAN--14" target="IV-PJzwdEKSMfLSHQAN--8">
          <mxGeometry relative="1" as="geometry" />
        </mxCell>
        <mxCell id="IV-PJzwdEKSMfLSHQAN--14" value="Messenger RNA&amp;nbsp;&lt;br&gt;mRNA" style="rounded=1;whiteSpace=wrap;html=1;" vertex="1" parent="1">
          <mxGeometry x="470" y="320" width="120" height="60" as="geometry" />
        </mxCell>
        <mxCell id="IV-PJzwdEKSMfLSHQAN--16" value="translated by" style="text;html=1;align=center;verticalAlign=middle;resizable=0;points=[];autosize=1;strokeColor=none;fillColor=none;" vertex="1" parent="1">
          <mxGeometry x="270" y="320" width="90" height="30" as="geometry" />
        </mxCell>
        <mxCell id="IV-PJzwdEKSMfLSHQAN--18" value="Has" style="text;html=1;align=center;verticalAlign=middle;resizable=0;points=[];autosize=1;strokeColor=none;fillColor=none;" vertex="1" parent="1">
          <mxGeometry x="710" y="195" width="40" height="30" as="geometry" />
        </mxCell>
        <mxCell id="IV-PJzwdEKSMfLSHQAN--19" value="Sending instructions to&amp;nbsp;" style="text;html=1;align=center;verticalAlign=middle;resizable=0;points=[];autosize=1;strokeColor=none;fillColor=none;" vertex="1" parent="1">
          <mxGeometry x="655" y="320" width="150" height="30" as="geometry" />
        </mxCell>
        <mxCell id="IV-PJzwdEKSMfLSHQAN--52" style="edgeStyle=orthogonalEdgeStyle;rounded=0;orthogonalLoop=1;jettySize=auto;html=1;entryX=0;entryY=0.5;entryDx=0;entryDy=0;" edge="1" parent="1" source="IV-PJzwdEKSMfLSHQAN--20" target="IV-PJzwdEKSMfLSHQAN--50">
          <mxGeometry relative="1" as="geometry" />
        </mxCell>
        <mxCell id="IV-PJzwdEKSMfLSHQAN--20" value="Ribosome" style="rounded=1;whiteSpace=wrap;html=1;" vertex="1" parent="1">
          <mxGeometry x="900" y="320" width="120" height="60" as="geometry" />
        </mxCell>
        <mxCell id="IV-PJzwdEKSMfLSHQAN--23" style="edgeStyle=orthogonalEdgeStyle;rounded=0;orthogonalLoop=1;jettySize=auto;html=1;entryX=0.5;entryY=1;entryDx=0;entryDy=0;" edge="1" parent="1" source="IV-PJzwdEKSMfLSHQAN--22" target="IV-PJzwdEKSMfLSHQAN--20">
          <mxGeometry relative="1" as="geometry">
            <Array as="points">
              <mxPoint x="960" y="470" />
            </Array>
          </mxGeometry>
        </mxCell>
        <mxCell id="IV-PJzwdEKSMfLSHQAN--22" value="amino acid" style="rounded=1;whiteSpace=wrap;html=1;" vertex="1" parent="1">
          <mxGeometry x="780" y="440" width="120" height="60" as="geometry" />
        </mxCell>
        <mxCell id="IV-PJzwdEKSMfLSHQAN--24" value="being material" style="text;html=1;align=center;verticalAlign=middle;resizable=0;points=[];autosize=1;strokeColor=none;fillColor=none;" vertex="1" parent="1">
          <mxGeometry x="920" y="445" width="100" height="30" as="geometry" />
        </mxCell>
        <mxCell id="IV-PJzwdEKSMfLSHQAN--28" style="edgeStyle=orthogonalEdgeStyle;rounded=0;orthogonalLoop=1;jettySize=auto;html=1;entryX=0;entryY=0.5;entryDx=0;entryDy=0;" edge="1" parent="1" source="IV-PJzwdEKSMfLSHQAN--25" target="IV-PJzwdEKSMfLSHQAN--27">
          <mxGeometry relative="1" as="geometry" />
        </mxCell>
        <mxCell id="IV-PJzwdEKSMfLSHQAN--30" style="edgeStyle=orthogonalEdgeStyle;rounded=0;orthogonalLoop=1;jettySize=auto;html=1;entryX=0;entryY=0.5;entryDx=0;entryDy=0;" edge="1" parent="1" source="IV-PJzwdEKSMfLSHQAN--25" target="IV-PJzwdEKSMfLSHQAN--29">
          <mxGeometry relative="1" as="geometry" />
        </mxCell>
        <mxCell id="IV-PJzwdEKSMfLSHQAN--33" style="edgeStyle=orthogonalEdgeStyle;rounded=0;orthogonalLoop=1;jettySize=auto;html=1;entryX=0;entryY=0.5;entryDx=0;entryDy=0;" edge="1" parent="1" source="IV-PJzwdEKSMfLSHQAN--25" target="IV-PJzwdEKSMfLSHQAN--32">
          <mxGeometry relative="1" as="geometry" />
        </mxCell>
        <mxCell id="IV-PJzwdEKSMfLSHQAN--25" value="Cell Membrane" style="rounded=1;whiteSpace=wrap;html=1;" vertex="1" parent="1">
          <mxGeometry x="255" y="440" width="120" height="60" as="geometry" />
        </mxCell>
        <mxCell id="IV-PJzwdEKSMfLSHQAN--34" style="edgeStyle=orthogonalEdgeStyle;rounded=0;orthogonalLoop=1;jettySize=auto;html=1;entryX=0;entryY=0.5;entryDx=0;entryDy=0;" edge="1" parent="1" source="IV-PJzwdEKSMfLSHQAN--27" target="IV-PJzwdEKSMfLSHQAN--22">
          <mxGeometry relative="1" as="geometry" />
        </mxCell>
        <mxCell id="IV-PJzwdEKSMfLSHQAN--27" value="Transport protein" style="rounded=1;whiteSpace=wrap;html=1;" vertex="1" parent="1">
          <mxGeometry x="470" y="440" width="120" height="60" as="geometry" />
        </mxCell>
        <mxCell id="IV-PJzwdEKSMfLSHQAN--35" style="edgeStyle=orthogonalEdgeStyle;rounded=0;orthogonalLoop=1;jettySize=auto;html=1;" edge="1" parent="1" source="IV-PJzwdEKSMfLSHQAN--29" target="IV-PJzwdEKSMfLSHQAN--22">
          <mxGeometry relative="1" as="geometry" />
        </mxCell>
        <mxCell id="IV-PJzwdEKSMfLSHQAN--29" value="Channel protein" style="rounded=1;whiteSpace=wrap;html=1;" vertex="1" parent="1">
          <mxGeometry x="470" y="540" width="120" height="60" as="geometry" />
        </mxCell>
        <mxCell id="IV-PJzwdEKSMfLSHQAN--31" value="f&quot;Has {} on it&quot;" style="text;html=1;align=center;verticalAlign=middle;resizable=0;points=[];autosize=1;strokeColor=none;fillColor=none;" vertex="1" parent="1">
          <mxGeometry x="375" y="445" width="90" height="30" as="geometry" />
        </mxCell>
        <mxCell id="IV-PJzwdEKSMfLSHQAN--32" value="Recognition protein" style="rounded=1;whiteSpace=wrap;html=1;" vertex="1" parent="1">
          <mxGeometry x="470" y="640" width="120" height="60" as="geometry" />
        </mxCell>
        <mxCell id="IV-PJzwdEKSMfLSHQAN--39" value="Traver through nuclear pores&amp;nbsp;" style="text;html=1;align=center;verticalAlign=middle;resizable=0;points=[];autosize=1;strokeColor=none;fillColor=none;" vertex="1" parent="1">
          <mxGeometry x="640" y="355" width="180" height="30" as="geometry" />
        </mxCell>
        <mxCell id="IV-PJzwdEKSMfLSHQAN--40" value="Force molecules" style="text;html=1;align=center;verticalAlign=middle;resizable=0;points=[];autosize=1;strokeColor=none;fillColor=none;" vertex="1" parent="1">
          <mxGeometry x="620" y="445" width="110" height="30" as="geometry" />
        </mxCell>
        <mxCell id="IV-PJzwdEKSMfLSHQAN--42" value="from less density place&lt;br&gt;&amp;nbsp;to higher density place.&amp;nbsp;" style="text;html=1;align=center;verticalAlign=middle;resizable=0;points=[];autosize=1;strokeColor=none;fillColor=none;" vertex="1" parent="1">
          <mxGeometry x="610" y="470" width="150" height="40" as="geometry" />
        </mxCell>
        <mxCell id="IV-PJzwdEKSMfLSHQAN--44" value="small molecules" style="text;html=1;align=center;verticalAlign=middle;resizable=0;points=[];autosize=1;strokeColor=none;fillColor=none;" vertex="1" parent="1">
          <mxGeometry x="625" y="545" width="110" height="30" as="geometry" />
        </mxCell>
        <mxCell id="IV-PJzwdEKSMfLSHQAN--47" value="(Active transport)" style="text;html=1;align=center;verticalAlign=middle;resizable=0;points=[];autosize=1;strokeColor=none;fillColor=none;" vertex="1" parent="1">
          <mxGeometry x="620" y="430" width="110" height="30" as="geometry" />
        </mxCell>
        <mxCell id="IV-PJzwdEKSMfLSHQAN--48" value="(passive transport)&amp;nbsp;" style="text;html=1;align=center;verticalAlign=middle;resizable=0;points=[];autosize=1;strokeColor=none;fillColor=none;" vertex="1" parent="1">
          <mxGeometry x="615" y="530" width="130" height="30" as="geometry" />
        </mxCell>
        <mxCell id="IV-PJzwdEKSMfLSHQAN--50" value="Rough ER" style="rounded=1;whiteSpace=wrap;html=1;" vertex="1" parent="1">
          <mxGeometry x="1120" y="320" width="120" height="60" as="geometry" />
        </mxCell>
        <mxCell id="IV-PJzwdEKSMfLSHQAN--51" value="Smooth ER" style="rounded=1;whiteSpace=wrap;html=1;" vertex="1" parent="1">
          <mxGeometry x="1110" y="510" width="120" height="60" as="geometry" />
        </mxCell>
        <mxCell id="IV-PJzwdEKSMfLSHQAN--53" value="" style="endArrow=none;html=1;rounded=0;" edge="1" parent="1">
          <mxGeometry width="50" height="50" relative="1" as="geometry">
            <mxPoint x="1180" y="380" as="sourcePoint" />
            <mxPoint x="1180" y="470" as="targetPoint" />
          </mxGeometry>
        </mxCell>
      </root>
    </mxGraphModel>
  </diagram>
</mxfile>
